<svg width="512" height="512" viewBox="0 0 512 512" xmlns="http://www.w3.org/2000/svg">
  <rect width="512" height="512" fill="#007acc" rx="64"/>
  <g fill="white">
    <!-- Markdown symbol -->
    <path d="M108 180h72v152h-36V252l-36 48-36-48v80H36V180h72l36 48 36-48z"/>
    <path d="M324 180v100l36-36h36v112h-36V268l-54 54-54-54v88h-36V244h36l54 54 54-54V180h-36z"/>
    
    <!-- Document icon -->
    <rect x="340" y="120" width="140" height="200" fill="white" rx="8"/>
    <rect x="360" y="140" width="100" height="8" fill="#007acc"/>
    <rect x="360" y="160" width="80" height="6" fill="#ccc"/>
    <rect x="360" y="180" width="100" height="6" fill="#ccc"/>
    <rect x="360" y="200" width="60" height="6" fill="#ccc"/>
    <rect x="360" y="240" width="90" height="6" fill="#ccc"/>
    <rect x="360" y="260" width="70" height="6" fill="#ccc"/>
  </g>
</svg>